<svg width="46" height="35" viewBox="0 0 46 35" fill="none" xmlns="http://www.w3.org/2000/svg">
<path fill-rule="evenodd" clip-rule="evenodd" d="M28.4538 26.9271C27.0771 27.0062 25.702 26.9999 24.3253 26.9999C24.3158 26.9999 17.3492 26.9999 17.3492 26.9999C15.9456 26.9999 14.5705 27.0062 13.1945 26.9271C11.9436 26.8559 10.7252 26.704 9.51226 26.3645C6.95903 25.6509 4.7294 24.1602 3.11771 22.0469C1.51551 19.947 0.648349 17.3764 0.648349 14.7369C0.648348 12.0943 1.51551 9.52525 3.11771 7.42538C4.7294 5.31285 6.95903 3.82142 9.51226 3.10775C10.7252 2.76832 11.9436 2.6172 13.1945 2.5452C14.5705 2.46608 15.9456 2.4732 17.3223 2.4732C17.3318 2.4732 24.3 2.47241 24.3 2.47241C25.702 2.4732 27.0771 2.46608 28.4538 2.5452C29.7039 2.6172 30.9224 2.76832 32.1353 3.10775C34.6885 3.82142 36.9182 5.31285 38.5298 7.42537C40.132 9.52524 41 12.0943 41 14.7361C41 17.3764 40.132 19.947 38.5298 22.0469C36.9182 24.1602 34.6885 25.6509 32.1353 26.3645C30.9224 26.704 29.7039 26.8559 28.4538 26.9271Z" fill="#12613F"/>
<g filter="url(#filter0_d_63_266)">
<path fill-rule="evenodd" clip-rule="evenodd" d="M28.7363 4.05484C22.8372 4.05484 18.055 8.83703 18.055 14.7362C18.055 20.6353 22.8372 25.4175 28.7363 25.4175C34.6354 25.4175 39.4176 20.6353 39.4176 14.7362C39.4176 8.83703 34.6354 4.05484 28.7363 4.05484Z" fill="white"/>
</g>
<path d="M29.1318 9.59351V10.2089M29.1318 20.055V20.6704M34.6703 15.132H34.0549M24.2088 15.132H23.5934M33.0482 19.0483L32.6131 18.6132M25.6506 11.6507L25.2155 11.2157M33.0482 11.2157L32.6131 11.6507M25.6506 18.6132L25.2155 19.0483M31.5934 15.132C31.5934 15.7848 31.334 16.4109 30.8724 16.8725C30.4108 17.3342 29.7847 17.5935 29.1318 17.5935C28.479 17.5935 27.8529 17.3342 27.3913 16.8725C26.9296 16.4109 26.6703 15.7848 26.6703 15.132C26.6703 14.4791 26.9296 13.853 27.3913 13.3914C27.8529 12.9298 28.479 12.6704 29.1318 12.6704C29.7847 12.6704 30.4108 12.9298 30.8724 13.3914C31.334 13.853 31.5934 14.4791 31.5934 15.132Z" stroke="#12613F" stroke-width="1.18681" stroke-linecap="round" stroke-linejoin="round"/>
<defs>
<filter id="filter0_d_63_266" x="11.7253" y="0.0988877" width="34.022" height="34.0219" filterUnits="userSpaceOnUse" color-interpolation-filters="sRGB">
<feFlood flood-opacity="0" result="BackgroundImageFix"/>
<feColorMatrix in="SourceAlpha" type="matrix" values="0 0 0 0 0 0 0 0 0 0 0 0 0 0 0 0 0 0 127 0" result="hardAlpha"/>
<feOffset dy="2.37363"/>
<feGaussianBlur stdDeviation="3.16484"/>
<feColorMatrix type="matrix" values="0 0 0 0 0 0 0 0 0 0 0 0 0 0 0 0 0 0 0.15 0"/>
<feBlend mode="normal" in2="BackgroundImageFix" result="effect1_dropShadow_63_266"/>
<feBlend mode="normal" in="SourceGraphic" in2="effect1_dropShadow_63_266" result="shape"/>
</filter>
</defs>
</svg>
