<svg width="45" height="40" viewBox="0 0 45 40" fill="none" xmlns="http://www.w3.org/2000/svg">
<path d="M21.9516 8.66885L15.0586 20.2896L21.9516 32.0195V39.9237H0V0H21.9516V8.66885Z" fill="white"/>
<path d="M24.8305 8.66885L17.9375 20.2896L24.8305 32.0195V39.9237H23.638V32.0195L16.745 20.2896L23.638 8.66885V0H24.8305V8.66885Z" fill="white"/>
<path d="M33.0197 39.7368L21.5991 20.2998L33.5363 0.175049L45 20.5596L33.0197 39.736V39.7368ZM22.7186 20.3021L33.0448 37.8762L43.8789 20.5337L33.5135 2.10242L22.7186 20.3014V20.3021Z" fill="white"/>
<path d="M34.6605 19.4983L32.814 19.1969C31.5493 18.9763 31.0884 18.4754 31.0884 17.7924C31.0884 16.9492 31.9316 16.4075 33.3361 16.4075C34.7406 16.4075 35.6749 16.8817 35.9237 17.8944H37.3651C37.0786 15.8556 35.2164 15.1624 33.3353 15.1624C31.0876 15.1624 29.5615 16.2065 29.5615 17.9321C29.5615 19.518 30.8066 20.2002 32.3312 20.4609L34.4384 20.8032C35.342 20.9633 35.9646 21.4249 35.9646 22.2077C35.9646 23.1513 34.9809 23.693 33.5355 23.693C31.8476 23.693 30.8875 23.0446 30.5946 21.8269H29.1658C29.4625 23.9867 31.141 24.957 33.4955 24.957C35.8499 24.957 37.4287 23.9341 37.4287 22.1064C37.4287 20.2787 36.0038 19.7182 34.659 19.4968L34.6605 19.4983Z" fill="white"/>
<path d="M33.0637 13.9453H32.9153V25.968H33.0637V13.9453Z" fill="white"/>
<path d="M33.6823 13.9453H33.5339V25.968H33.6823V13.9453Z" fill="white"/>
</svg>
