<svg width="18" height="18" viewBox="0 0 18 18" fill="none" xmlns="http://www.w3.org/2000/svg">
<path d="M8.99996 17.9999C11.3868 17.9999 13.6758 17.0518 15.364 15.364C17.0518 13.6761 17.9999 11.3871 17.9999 8.99996C17.9999 6.61287 17.0518 4.32408 15.364 2.63593C13.6761 0.948165 11.3871 0 8.99996 0C6.61287 0 4.32408 0.948165 2.63593 2.63593C0.948165 4.32383 0 6.61287 0 8.99996C0.00266298 11.3861 0.951646 13.6737 2.63887 15.3611C4.32605 17.0483 6.61358 17.9973 8.99996 17.9999Z" fill="black"/>
<path d="M11.9049 12.7924C12.0652 12.9418 12.2917 12.9968 12.5026 12.9376C12.7136 12.8785 12.8784 12.7137 12.9375 12.5027C12.9967 12.2918 12.9417 12.0653 12.7923 11.905L9.62775 8.73952V4.81389C9.62775 4.58964 9.50806 4.38236 9.3138 4.27023C9.11954 4.15797 8.88015 4.15797 8.6859 4.27023C8.49164 4.38236 8.37195 4.58965 8.37195 4.81389V9.00001C8.37181 9.16651 8.4381 9.3263 8.55611 9.44374L11.9049 12.7924Z" fill="white"/>
</svg>
