<svg width="13" height="16" viewBox="0 0 13 16" fill="none" xmlns="http://www.w3.org/2000/svg">
<path d="M10.7649 11.9219C10.343 11.6812 9.82113 11.4812 9.22113 11.3281L10.5524 9.99685C11.6555 8.89373 12.2618 7.42184 12.2618 5.85312C12.2618 4.28439 11.6555 2.81253 10.5524 1.70938C9.44928 0.606232 7.97738 0 6.40866 0C4.83994 0 3.36807 0.60626 2.26492 1.70938C1.16177 2.8125 0.555542 4.28439 0.555542 5.85312C0.555542 7.42184 1.1618 8.8937 2.26492 9.99685L3.59619 11.3281C2.99618 11.4812 2.47429 11.6812 2.05244 11.9219C1.09932 12.4656 0.899315 13.0812 0.899315 13.5C0.899315 14.2531 1.53058 14.9219 2.68058 15.3781C3.68684 15.7781 5.00871 16 6.4086 16C7.8085 16 9.13362 15.7781 10.1366 15.3781C11.2866 14.9187 11.9179 14.2531 11.9179 13.5C11.9179 13.0781 11.718 12.4656 10.7649 11.9219ZM9.76488 14.4499C8.87739 14.8061 7.68361 14.9999 6.40857 14.9999C5.13354 14.9999 3.93982 14.803 3.05227 14.4499C2.35227 14.1717 1.89915 13.7968 1.89915 13.4999C1.89915 13.1249 2.68978 12.4811 4.43665 12.1686L6.0554 13.7842C6.15227 13.8811 6.2804 13.9311 6.40852 13.9311C6.53663 13.9311 6.66477 13.8811 6.76163 13.7842L8.38038 12.1686C10.1273 12.4842 10.9179 13.1249 10.9179 13.4999C10.9179 13.7968 10.4649 14.1686 9.76488 14.4499Z" fill="black"/>
<path d="M8.69683 3.28791C7.35758 1.95188 5.18375 1.95188 3.84453 3.28791C2.50531 4.62393 2.5085 6.80099 3.84453 8.14021C4.51417 8.80985 5.39081 9.14303 6.27071 9.14303C7.15061 9.14303 8.02728 8.80982 8.69689 8.14021C10.0329 6.80097 10.0329 4.62387 8.69689 3.28791H8.69683ZM7.96573 7.40583C7.03085 8.34071 5.51367 8.34071 4.57864 7.40583C3.64361 6.47095 3.64376 4.95052 4.57864 4.01874C5.51352 3.08386 7.0307 3.08386 7.96573 4.01874C8.89739 4.95362 8.89739 6.47406 7.96573 7.40583Z" fill="white"/>
</svg>
