<svg width="10" height="16" viewBox="0 0 10 16" fill="none" xmlns="http://www.w3.org/2000/svg">
<path d="M7.55548 0H2.22224C0.997323 0 0 0.997322 0 2.22224V13.7778C0 15.0027 0.997323 16 2.22224 16H7.55548C8.78039 16 9.77771 15.0027 9.77771 13.7778V2.22224C9.77771 0.996551 8.78039 0 7.55548 0Z" fill="black"/>
<path d="M5.77777 13.7771C5.77777 14.2679 5.37995 14.6657 4.88913 14.6657C4.39831 14.6657 4.00049 14.2679 4.00049 13.7771C4.00049 13.2863 4.39831 12.8884 4.88913 12.8884C5.37995 12.8884 5.77777 13.2863 5.77777 13.7771Z" fill="white"/>
<path d="M5.77778 1.33301H3.99986C3.7542 1.33301 3.55554 1.53166 3.55554 1.77733C3.55554 2.02299 3.7542 2.22165 3.99986 2.22165H5.77778C6.02344 2.22165 6.2221 2.02299 6.2221 1.77733C6.2221 1.5318 6.02331 1.33301 5.77778 1.33301Z" fill="white"/>
</svg>
