<svg width="47" height="36" viewBox="0 0 47 36" fill="none" xmlns="http://www.w3.org/2000/svg">
<path fill-rule="evenodd" clip-rule="evenodd" d="M18.5462 3.07291C19.9229 2.99379 21.298 3.00012 22.6747 3.00012C22.6842 3.00012 29.6508 3.00012 29.6508 3.00012C31.0544 3.00012 32.4295 2.99379 33.8055 3.07291C35.0564 3.14412 36.2748 3.29603 37.4877 3.63546C40.041 4.34913 42.2706 5.83977 43.8823 7.95309C45.4845 10.053 46.3517 12.6236 46.3517 15.2631C46.3517 17.9057 45.4845 20.4748 43.8823 22.5746C42.2706 24.6872 40.041 26.1786 37.4877 26.8923C36.2748 27.2317 35.0564 27.3828 33.8055 27.4548C32.4295 27.5339 31.0544 27.5268 29.6777 27.5268C29.6682 27.5268 22.7 27.5276 22.7 27.5276C21.298 27.5268 19.9229 27.5339 18.5462 27.4548C17.2961 27.3828 16.0776 27.2317 14.8647 26.8923C12.3115 26.1786 10.0818 24.6872 8.47015 22.5746C6.86796 20.4748 6 17.9057 6 15.2639C6 12.6236 6.86796 10.053 8.47015 7.95309C10.0818 5.83977 12.3115 4.34913 14.8647 3.63546C16.0776 3.29603 17.2961 3.14412 18.5462 3.07291Z" fill="#A1272E"/>
<g filter="url(#filter0_dd_62_263)">
<path fill-rule="evenodd" clip-rule="evenodd" d="M18.2637 25.9452C24.1629 25.9452 28.9451 21.163 28.9451 15.2638C28.9451 9.36471 24.1629 4.58252 18.2637 4.58252C12.3646 4.58252 7.58241 9.36471 7.58241 15.2638C7.58241 21.163 12.3646 25.9452 18.2637 25.9452Z" fill="white"/>
<path d="M18.2637 26.143C24.2721 26.143 29.1429 21.2722 29.1429 15.2638C29.1429 9.25547 24.2721 4.38472 18.2637 4.38472C12.2554 4.38472 7.38461 9.25547 7.38461 15.2638C7.38461 21.2722 12.2554 26.143 18.2637 26.143Z" stroke="black" stroke-opacity="0.04" stroke-width="0.395604"/>
</g>
<path d="M23.4901 16.3347C23.1088 16.436 22.7158 16.4872 22.3212 16.4872C21.1196 16.4872 19.9912 16.0202 19.1437 15.1729C18.5871 14.6134 18.1869 13.9177 17.9831 13.1554C17.7793 12.393 17.7789 11.5906 17.982 10.828C18.0074 10.7327 18.0072 10.6324 17.9816 10.5371C17.9559 10.4418 17.9056 10.355 17.8358 10.2853C17.7659 10.2156 17.679 10.1655 17.5837 10.14C17.4883 10.1145 17.388 10.1145 17.2926 10.14C16.3376 10.3944 15.4664 10.8953 14.7662 11.5926C12.5724 13.7856 12.5724 17.3552 14.7662 19.5494C15.2877 20.0735 15.9079 20.4891 16.5911 20.772C17.2743 21.055 18.0068 21.1997 18.7463 21.1978C19.4856 21.1998 20.218 21.0552 20.901 20.7724C21.584 20.4895 22.2041 20.074 22.7253 19.5499C23.4233 18.8499 23.9247 17.9785 24.179 17.0233C24.2043 16.928 24.2041 16.8278 24.1784 16.7326C24.1527 16.6374 24.1025 16.5506 24.0328 16.4809C23.9631 16.4111 23.8762 16.361 23.781 16.3353C23.6858 16.3097 23.5855 16.3094 23.4901 16.3347ZM21.9301 18.7544C21.513 19.1736 21.0169 19.5059 20.4706 19.7322C19.9242 19.9585 19.3383 20.0741 18.7469 20.0726C18.1553 20.074 17.5692 19.9582 17.0227 19.7319C16.4761 19.5055 15.9798 19.1731 15.5626 18.7538C13.8078 16.9991 13.8078 14.1434 15.5626 12.3887C15.9017 12.0501 16.2931 11.7684 16.7219 11.5543C16.6592 12.3639 16.772 13.1776 17.0527 13.9396C17.3334 14.7016 17.7754 15.394 18.3484 15.9696C18.9229 16.5442 19.6154 16.9872 20.378 17.268C21.1406 17.5489 21.9551 17.6608 22.7653 17.596C22.55 18.0239 22.2681 18.4149 21.9301 18.7544Z" fill="#A1272E"/>
<defs>
<filter id="filter0_dd_62_263" x="0.857143" y="0.230968" width="34.8132" height="34.8131" filterUnits="userSpaceOnUse" color-interpolation-filters="sRGB">
<feFlood flood-opacity="0" result="BackgroundImageFix"/>
<feColorMatrix in="SourceAlpha" type="matrix" values="0 0 0 0 0 0 0 0 0 0 0 0 0 0 0 0 0 0 127 0" result="hardAlpha"/>
<feOffset dy="2.37363"/>
<feGaussianBlur stdDeviation="0.395604"/>
<feColorMatrix type="matrix" values="0 0 0 0 0 0 0 0 0 0 0 0 0 0 0 0 0 0 0.06 0"/>
<feBlend mode="normal" in2="BackgroundImageFix" result="effect1_dropShadow_62_263"/>
<feColorMatrix in="SourceAlpha" type="matrix" values="0 0 0 0 0 0 0 0 0 0 0 0 0 0 0 0 0 0 127 0" result="hardAlpha"/>
<feOffset dy="2.37363"/>
<feGaussianBlur stdDeviation="3.16484"/>
<feColorMatrix type="matrix" values="0 0 0 0 0 0 0 0 0 0 0 0 0 0 0 0 0 0 0.15 0"/>
<feBlend mode="normal" in2="effect1_dropShadow_62_263" result="effect2_dropShadow_62_263"/>
<feBlend mode="normal" in="SourceGraphic" in2="effect2_dropShadow_62_263" result="shape"/>
</filter>
</defs>
</svg>
