<svg width="58" height="51" viewBox="0 0 58 51" fill="none" xmlns="http://www.w3.org/2000/svg">
<path d="M27.8649 11.004L19.1151 25.7552L27.8649 40.6448V50.6782H0V0H27.8649V11.004Z" fill="#A1272E"/>
<path d="M31.5193 11.004L22.7694 25.7552L31.5193 40.6448V50.6782H30.0055V40.6448L21.2557 25.7552L30.0055 11.004V0H31.5193V11.004Z" fill="#12613F"/>
<path d="M41.9144 50.4409L27.4174 25.768L42.5701 0.222168L57.122 26.0979L41.9144 50.4399V50.4409ZM28.8385 25.771L41.9463 48.0791L55.6989 26.065L42.5412 2.66873L28.8385 25.77V25.771Z" fill="#0A5D3B"/>
<path d="M44.63 24.7214L41.7299 24.248C39.7435 23.9015 39.0197 23.1148 39.0197 22.042C39.0197 20.7178 40.344 19.867 42.5499 19.867C44.7558 19.867 46.2231 20.6117 46.614 22.2023H48.8778C48.4278 19.0001 45.503 17.9114 42.5487 17.9114C39.0185 17.9114 36.6215 19.5513 36.6215 22.2615C36.6215 24.7523 38.577 25.8238 40.9716 26.2331L44.2811 26.7707C45.7003 27.0223 46.6781 27.7473 46.6781 28.9766C46.6781 30.4588 45.1331 31.3095 42.8631 31.3095C40.2121 31.3095 38.7041 30.2911 38.2441 28.3786H36C36.4661 31.7707 39.1023 33.2947 42.8002 33.2947C46.4981 33.2947 48.9777 31.6881 48.9777 28.8176C48.9777 25.9471 46.7397 25.0667 44.6276 24.719L44.63 24.7214Z" fill="#9D373C"/>
<path d="M42.122 16H41.889V34.8827H42.122V16Z" fill="#9D373C"/>
<path d="M43.0936 16H42.8606V34.8827H43.0936V16Z" fill="#9D373C"/>
</svg>
