<svg width="44" height="44" viewBox="0 0 44 44" fill="none" xmlns="http://www.w3.org/2000/svg">
<circle cx="22" cy="22" r="22" fill="#1B9260"/>
<path d="M18.1476 25.0846L15.4834 22.4684L15.3715 22.3586L15.2171 22.3323C14.8714 22.2733 14.5582 22.2839 14.2873 22.3813C14.0064 22.4823 13.8036 22.6655 13.6755 22.8875C13.4382 23.299 13.4863 23.7826 13.562 24.0667L13.5959 24.1935L13.6876 24.2874L17.4346 28.1201L17.4346 28.1201C17.5722 28.2608 17.8112 28.392 18.0611 28.4559C18.3232 28.5229 18.6988 28.5405 19.0409 28.3073L19.0819 28.2793L19.1167 28.2437L30.237 16.8694L30.3187 16.7859L30.3549 16.6748C30.4916 16.2552 30.5358 15.8779 30.47 15.5472C30.4012 15.2015 30.218 14.9394 29.9698 14.7657C29.5143 14.4469 28.9212 14.4747 28.5706 14.5464L28.4204 14.5771L28.3133 14.6867L18.1476 25.0846Z" fill="white" stroke="white"/>
</svg>
