<svg width="18" height="18" viewBox="0 0 18 18" fill="none" xmlns="http://www.w3.org/2000/svg">
<path d="M0.89915 17.5688L0.899146 17.5688C0.873809 17.5428 0.853927 17.512 0.84067 17.4782C0.827453 17.4446 0.821089 17.4086 0.821952 17.3724M0.89915 17.5688L0.82196 17.3721C0.821957 17.3722 0.821955 17.3723 0.821952 17.3724M0.89915 17.5688C0.924484 17.5947 0.954761 17.6154 0.988197 17.6295C1.02163 17.6435 1.05753 17.6508 1.0938 17.6508C1.09381 17.6508 1.09383 17.6508 1.09384 17.6508H2.38287C2.53216 17.6508 2.65117 17.5318 2.65471 17.3858C2.69701 15.7528 3.35255 14.2239 4.51178 13.0647C5.71119 11.8652 7.30353 11.2055 9.00005 11.2055C10.6966 11.2055 12.2889 11.8652 13.4883 13.0647C14.6475 14.2238 15.303 15.7526 15.3454 17.3855M0.89915 17.5688L14.7834 11.7673M0.821952 17.3724C0.841957 16.3393 1.05979 15.3197 1.46365 14.3686C1.87473 13.3972 2.47001 12.5146 3.21663 11.7695M0.821952 17.3724L3.21663 11.7695M14.7834 11.7673C15.5308 12.5119 16.1262 13.3947 16.5365 14.3666C16.9411 15.3215 17.1564 16.333 17.1782 17.3725C17.179 17.4086 17.1726 17.4446 17.1594 17.4782C17.1462 17.512 17.1263 17.5428 17.101 17.5688C17.0756 17.5947 17.0453 17.6154 17.0119 17.6295C16.9785 17.6435 16.9426 17.6508 16.9063 17.6508C16.9063 17.6508 16.9063 17.6508 16.9063 17.6508H15.6172C15.4687 17.6508 15.3488 17.5347 15.3454 17.3855M14.7834 11.7673C14.0727 11.0551 13.2367 10.4806 12.318 10.0723C13.6019 9.08065 14.4282 7.52487 14.4282 5.77734C14.4282 2.77876 11.9986 0.349219 9.00005 0.349219C6.00146 0.349219 3.57193 2.77876 3.57193 5.77734C3.57193 7.52493 4.39829 9.0807 5.68217 10.0743C4.76136 10.4821 3.93254 11.0516 3.21672 11.7694C3.21669 11.7695 3.21666 11.7695 3.21663 11.7695M14.7834 11.7673L3.21655 11.7696C3.21657 11.7696 3.2166 11.7696 3.21663 11.7695M15.3454 17.3855L15.4454 17.3832L15.3454 17.3858C15.3454 17.3857 15.3454 17.3856 15.3454 17.3855ZM9.00005 9.37266C8.04047 9.37266 7.13777 8.99864 6.45826 8.31913C5.77876 7.63963 5.40474 6.73693 5.40474 5.77734C5.40474 4.81776 5.77876 3.91506 6.45826 3.23555C7.13777 2.55605 8.04047 2.18203 9.00005 2.18203C9.95964 2.18203 10.8623 2.55605 11.5418 3.23555C12.2213 3.91506 12.5954 4.81776 12.5954 5.77734C12.5954 6.73693 12.2213 7.63963 11.5418 8.31913C10.8623 8.99864 9.95964 9.37266 9.00005 9.37266ZM0.970708 17.4989L0.9707 17.499L0.970708 17.4989Z" fill="#0D0D26" stroke="#0D0D26" stroke-width="0.2"/>
</svg>
